#N canvas 198 190 450 602 10;
#X obj 29 294 textfile;
#X obj 29 266 until;
#X obj 68 193 list prepend read;
#X obj 68 215 list trim;
#X obj 29 173 t b b a;
#X msg 48 240 rewind;
#X obj 29 316 list split 1;
#X obj 29 357 list;
#X obj 29 336 t b a;
#X obj 29 409 s;
#X obj 29 94 list split 1;
#X obj 66 357 pack s s;
#X msg 44 386 symbol \$2/config/\$1;
#X obj 10 12 r configuration-loader/load;
#X text 189 12 <- path/to/config/file destination-name;
#X obj 63 117 route bang;
#X obj 10 34 t b a b;
#X msg 49 55 \; pd dsp 0 \;;
#X msg 10 437 \; pd dsp 1 \;;
#X connect 0 0 6 0;
#X connect 0 1 1 1;
#X connect 1 0 0 0;
#X connect 2 0 3 0;
#X connect 3 0 0 0;
#X connect 4 0 1 0;
#X connect 4 1 5 0;
#X connect 4 2 2 0;
#X connect 5 0 0 0;
#X connect 6 0 8 0;
#X connect 6 1 7 1;
#X connect 7 0 9 0;
#X connect 8 0 7 0;
#X connect 8 1 11 0;
#X connect 10 0 4 0;
#X connect 10 1 15 0;
#X connect 11 0 12 0;
#X connect 12 0 9 1;
#X connect 13 0 16 0;
#X connect 15 1 11 1;
#X connect 16 0 18 0;
#X connect 16 1 10 0;
#X connect 16 2 17 0;
