#N canvas 660 48 363 558 10;
#X declare -path ./blockhead;
#X declare -path ./blockhead;
#X declare -path ./blockhead;
#X declare -path ./blockhead;
#X declare -path ./blockhead;
#X declare -path ./blockhead;
#X declare -path ./blockhead;
#X declare -path ./blockhead;
#X declare -path ./blockhead;
#X declare -path ./blockhead;
#X obj 85 406 freeverb~;
#X obj 194 12 declare -path ./blockhead;
#X obj 10 31 nbx 10 14 0 1e+37 0 0 \$0/SEED \$0/SEED seed 0 -8 0 10
-262144 -1 -1 3.25562e+06 256;
#N canvas 32 90 678 712 autocompress 0;
#X obj 162 62 hip~ 5;
#X obj 339 63 hip~ 5;
#X obj 107 286 expr~ 2 / (1 + pow(27.1828 \, -$v1)) - 1;
#X obj 397 285 expr~ 2 / (1 + pow(27.1828 \, -$v1)) - 1;
#N canvas 2 50 454 522 autocompress~ 0;
#X obj 36 41 env~;
#X obj 36 64 dbtorms;
#X obj 36 156 line~;
#X obj 17 184 *~;
#X obj 17 228 outlet~;
#X obj 18 18 inlet~;
#X msg 36 133 \$1 10;
#X obj 36 88 clip 0.05 5;
#X obj 17 206 *~ 0.3;
#X obj 36 110 expr 1 / $f1;
#X connect 0 0 1 0;
#X connect 1 0 7 0;
#X connect 2 0 3 1;
#X connect 3 0 8 0;
#X connect 5 0 0 0;
#X connect 5 0 3 0;
#X connect 6 0 2 0;
#X connect 7 0 9 0;
#X connect 8 0 4 0;
#X connect 9 0 6 0;
#X restore 29 150 pd autocompress~;
#N canvas 285 140 458 526 autocompress~ 0;
#X obj 36 41 env~;
#X obj 36 64 dbtorms;
#X obj 36 156 line~;
#X obj 17 184 *~;
#X obj 17 228 outlet~;
#X obj 18 18 inlet~;
#X msg 36 133 \$1 10;
#X obj 36 88 clip 0.05 5;
#X obj 17 206 *~ 0.3;
#X obj 36 110 expr 1 / $f1;
#X connect 0 0 1 0;
#X connect 1 0 7 0;
#X connect 2 0 3 1;
#X connect 3 0 8 0;
#X connect 5 0 0 0;
#X connect 5 0 3 0;
#X connect 6 0 2 0;
#X connect 7 0 9 0;
#X connect 8 0 4 0;
#X connect 9 0 6 0;
#X restore 447 147 pd autocompress~;
#X obj 162 37 inlet~;
#X obj 339 37 inlet~;
#X obj 397 307 outlet~;
#X obj 107 308 outlet~;
#X connect 0 0 2 0;
#X connect 0 0 4 0;
#X connect 1 0 3 0;
#X connect 1 0 5 0;
#X connect 2 0 9 0;
#X connect 3 0 8 0;
#X connect 4 0 2 0;
#X connect 5 0 3 0;
#X connect 6 0 0 0;
#X connect 7 0 1 0;
#X restore 79 438 pd autocompress;
#N canvas 365 325 450 300 reverb-settings 0;
#X msg 30 249 dry 1 \, wet \$1 \, roomsize \$2;
#X obj 30 42 loadbang;
#X obj 89 86 delay 1;
#X msg 89 64 bang;
#X obj 30 118 t b b;
#X msg 14 19 bang;
#X obj 30 164 u_seededrandom 10000 SEED;
#X obj 220 164 u_seededrandom 10000 SEED;
#X obj 30 228 pack f f;
#X obj 220 186 expr $f1 / float(10000) * 0.2 + 0.75;
#X obj 30 271 outlet;
#X obj 89 42 r \$0/SEED;
#X obj 30 186 expr $f1 / float(10000) * 0.3;
#X connect 0 0 10 0;
#X connect 1 0 4 0;
#X connect 2 0 4 0;
#X connect 3 0 2 0;
#X connect 4 0 6 0;
#X connect 4 1 7 0;
#X connect 5 0 4 0;
#X connect 6 0 12 0;
#X connect 7 0 9 0;
#X connect 8 0 0 0;
#X connect 9 0 8 1;
#X connect 11 0 3 0;
#X connect 12 0 8 0;
#X restore 9 223 pd reverb-settings;
#X obj 9 245 s rvb;
#X obj 90 350 r rvb;
#X obj 9 80 s \$0/SEED;
#N canvas 38 57 450 398 dynamic-mixer-builder 0;
#X obj 9 8 inlet channels;
#X obj 9 135 until;
#X obj 9 157 f;
#X obj 39 157 + 1;
#X msg 26 113 0;
#X obj 9 30 t f b f b;
#X obj 9 179 t f f;
#X obj 9 223 pack f f f;
#X obj 9 201 expr $f1 * 24 + 10;
#X obj 9 245 list append \$1;
#X obj 9 367 s pd-\$0-mixer-units;
#X msg 60 73 \; pd-\$1-mixer-units clear \;;
#X obj 60 52 \$0;
#X msg 9 267 obj 10 \$1 mixer-unit \$4 \$2 \$3;
#X obj 9 319 list append;
#X obj 72 295 zeroify SEED;
#X obj 9 341 list trim;
#X connect 0 0 5 0;
#X connect 1 0 2 0;
#X connect 2 0 3 0;
#X connect 2 0 6 0;
#X connect 3 0 2 1;
#X connect 4 0 2 1;
#X connect 5 0 1 0;
#X connect 5 1 4 0;
#X connect 5 2 7 2;
#X connect 5 3 12 0;
#X connect 6 0 8 0;
#X connect 6 1 7 1;
#X connect 7 0 9 0;
#X connect 8 0 7 0;
#X connect 9 0 13 0;
#X connect 12 0 11 0;
#X connect 13 0 14 0;
#X connect 14 0 16 0;
#X connect 15 0 14 1;
#X connect 16 0 10 0;
#X restore 9 147 pd dynamic-mixer-builder;
#X obj 9 500 s~ \$1/master/left;
#X obj 230 500 s~ \$1/master/right;
#N canvas 526 50 450 300 \$0-mixer-units 0;
#X obj 10 10 mixer-unit one 0 9 \$0/SEED;
#X obj 10 34 mixer-unit one 1 9 \$0/SEED;
#X obj 10 58 mixer-unit one 2 9 \$0/SEED;
#X obj 10 82 mixer-unit one 3 9 \$0/SEED;
#X obj 10 106 mixer-unit one 4 9 \$0/SEED;
#X obj 10 130 mixer-unit one 5 9 \$0/SEED;
#X obj 10 154 mixer-unit one 6 9 \$0/SEED;
#X obj 10 178 mixer-unit one 7 9 \$0/SEED;
#X obj 10 202 mixer-unit one 8 9 \$0/SEED;
#X restore 9 201 pd \$0-mixer-units;
#X obj 9 318 catch~ \$1/mixer/left;
#X obj 229 317 catch~ \$1/mixer/right;
#X obj 9 125 r \$1/mixer/channels;
#X obj 191 84 r \$1/mixer/clear;
#X obj 191 106 bang;
#X obj 191 128 \$0;
#X msg 191 150 \; pd-\$1-mixer-units clear \;;
#X obj 9 58 r \$1/config/seed;
#X obj 9 340 *~ 0.66;
#X obj 229 337 *~ 0.66;
#X obj 165 460 *~ 0.33;
#X obj 79 460 *~ 0.33;
#X obj 9 288 print reverb-settings;
#X obj 9 267 r rvb;
#X obj 135 375 *~ 0.25;
#X obj 59 375 *~ 0.25;
#X connect 0 0 3 0;
#X connect 0 1 3 1;
#X connect 3 0 23 0;
#X connect 3 1 22 0;
#X connect 4 0 5 0;
#X connect 6 0 0 0;
#X connect 12 0 20 0;
#X connect 13 0 21 0;
#X connect 14 0 8 0;
#X connect 15 0 16 0;
#X connect 16 0 17 0;
#X connect 17 0 18 0;
#X connect 19 0 7 0;
#X connect 20 0 9 0;
#X connect 20 0 3 0;
#X connect 20 0 27 0;
#X connect 21 0 10 0;
#X connect 21 0 3 1;
#X connect 21 0 26 0;
#X connect 22 0 10 0;
#X connect 23 0 9 0;
#X connect 25 0 24 0;
#X connect 26 0 0 1;
#X connect 27 0 0 0;
