#N canvas 550 349 450 300 10;
#X declare -path ./blockhead;
#X text 11 7 args: channel-index channel-count seed-name;
#X obj 11 59 random-stereo-phase \$2 \$3 \$4;
#X obj 195 81 throw~ \$1/mixer/right;
#X obj 11 81 throw~ \$1/mixer/left;
#X obj 11 37 catch~ \$1/mixer/\$2;
#X connect 1 0 3 0;
#X connect 1 1 2 0;
#X connect 4 0 1 0;
