#N canvas 2 48 450 300 10;
#X obj 13 166 readsf~ 1;
#X msg 13 145 open \$1 \, 1;
#X obj 13 268 throw~ \$1/mixer/\$2;
#X obj 13 14 r \$1/player/\$2/load-stem;
#X obj 13 76 symbol;
#X obj 91 208 f;
#X obj 121 208 + 1;
#X obj 91 230 s \$1/player/\$2/loop-counter;
#X floatatom 51 232 5 0 0 0 - - -, f 5;
#X msg 106 73 1;
#X obj 13 36 t a b b;
#X msg 138 73 0;
#X obj 64 187 t b b;
#X obj 13 98 t a a;
#X obj 40 120 print \$1/player/\$2 open;
#X connect 0 0 2 0;
#X connect 0 1 12 0;
#X connect 1 0 0 0;
#X connect 3 0 10 0;
#X connect 4 0 13 0;
#X connect 5 0 6 0;
#X connect 5 0 7 0;
#X connect 5 0 8 0;
#X connect 6 0 5 1;
#X connect 9 0 5 1;
#X connect 10 0 4 0;
#X connect 10 1 9 0;
#X connect 10 2 11 0;
#X connect 11 0 7 0;
#X connect 12 0 4 0;
#X connect 12 1 5 0;
#X connect 13 0 1 0;
#X connect 13 1 14 0;
