#N canvas 450 48 450 300 10;
#N canvas 36 50 450 404 dynamic-player-builder 0;
#X obj 9 8 inlet channels;
#X obj 9 135 until;
#X obj 9 157 f;
#X obj 39 157 + 1;
#X msg 26 113 0;
#X obj 9 30 t f b f b;
#X obj 9 179 t f f;
#X obj 9 223 pack f f f;
#X obj 9 201 expr $f1 * 24 + 10;
#X obj 9 245 list append \$1;
#X obj 60 52 \$0;
#X obj 9 319 list append;
#X obj 72 295 zeroify SEED;
#X obj 9 341 list trim;
#X msg 60 73 \; pd-\$1-player-units clear \;;
#X msg 9 267 obj 10 \$1 player-unit \$4 \$2 \$3;
#X obj 9 367 s pd-\$0-player-units;
#X connect 0 0 5 0;
#X connect 1 0 2 0;
#X connect 2 0 3 0;
#X connect 2 0 6 0;
#X connect 3 0 2 1;
#X connect 4 0 2 1;
#X connect 5 0 1 0;
#X connect 5 1 4 0;
#X connect 5 2 7 2;
#X connect 5 3 10 0;
#X connect 6 0 8 0;
#X connect 6 1 7 1;
#X connect 7 0 9 0;
#X connect 8 0 7 0;
#X connect 9 0 15 0;
#X connect 10 0 14 0;
#X connect 11 0 13 0;
#X connect 12 0 11 1;
#X connect 13 0 16 0;
#X connect 15 0 11 0;
#X restore 15 66 pd dynamic-player-builder;
#N canvas 2 48 450 300 \$0-player-units 1;
#X restore 15 102 pd \$0-player-units;
#X obj 15 44 r \$1/player/channels;
#X obj 201 43 r \$1/player/clear;
#X obj 201 65 bang;
#X obj 201 87 \$0;
#X msg 201 109 \; pd-\$1-player-units clear \;;
#X connect 2 0 0 0;
#X connect 3 0 4 0;
#X connect 4 0 5 0;
#X connect 5 0 6 0;
