#N canvas 682 138 450 697 10;
#X declare -path ./blockhead;
#X obj 9 34 inlet~;
#X obj 114 55 loadbang;
#X obj 286 36 declare -path ./blockhead;
#N canvas 215 106 454 304 phase-l 0;
#X obj 8 8 inlet~;
#X obj 8 256 outlet~;
#X obj 8 233 vd~ \$0-l;
#X obj 24 179 inlet;
#X obj 9 210 *~ 20;
#X obj 8 79 delwrite~ \$0-l 20;
#X connect 0 0 5 0;
#X connect 2 0 1 0;
#X connect 3 0 4 0;
#X connect 4 0 2 0;
#X restore 9 610 pd phase-l;
#N canvas 210 81 454 304 phase-r 0;
#X obj 8 8 inlet~;
#X obj 8 256 outlet~;
#X obj 215 12 inlet;
#X obj 8 233 vd~ \$0-r;
#X obj 9 210 *~ 20;
#X obj 8 79 delwrite~ \$0-r 20;
#X connect 0 0 5 0;
#X connect 2 0 4 0;
#X connect 3 0 1 0;
#X connect 4 0 3 0;
#X restore 118 610 pd phase-r;
#X obj 114 452 expr (0.5 - $f1) * 2;
#X obj 114 474 *;
#X obj 114 304 t f f f;
#X obj 153 325 >= 0.5;
#X obj 133 352 < 0.5;
#X obj 165 401 expr ($f1 - 0.5) * 2;
#X obj 165 423 *;
#X obj 114 167 u_seededrandom 10000 \$3;
#X obj 173 55 r \$3;
#X obj 173 99 delay 1;
#X msg 173 77 bang;
#X obj 114 189 / 10000;
#X obj 114 131 t b b;
#X obj 9 631 outlet~;
#X obj 118 632 outlet~;
#X text 9 6 args: channel-index channel-count seed-name, f 67;
#X obj 114 253 + 0;
#X msg 98 32 bang;
#X obj 114 281 clip 0 1;
#X floatatom 202 306 5 0 0 0 - - -, f 5;
#X floatatom 213 237 5 0 0 0 - - -, f 5;
#X obj 168 189 expr float(\$1) / \$2 + (1.0 / \$2) / float(2);
#X obj 114 211 expr $f1 * (1.0 / \$2) - (1.0 / \$2) / float(2);
#X connect 0 0 3 0;
#X connect 0 0 4 0;
#X connect 1 0 17 0;
#X connect 3 0 18 0;
#X connect 4 0 19 0;
#X connect 5 0 6 0;
#X connect 6 0 3 1;
#X connect 7 0 5 0;
#X connect 7 0 10 0;
#X connect 7 1 9 0;
#X connect 7 2 8 0;
#X connect 8 0 11 1;
#X connect 9 0 6 1;
#X connect 10 0 11 0;
#X connect 11 0 4 1;
#X connect 12 0 16 0;
#X connect 13 0 15 0;
#X connect 14 0 17 0;
#X connect 15 0 14 0;
#X connect 16 0 27 0;
#X connect 17 0 12 0;
#X connect 17 1 26 0;
#X connect 21 0 23 0;
#X connect 22 0 17 0;
#X connect 23 0 7 0;
#X connect 23 0 24 0;
#X connect 26 0 21 1;
#X connect 26 0 25 0;
#X connect 27 0 21 0;
