#N canvas 2 48 450 300 10;
#X msg 202 100 symbol $;
#X obj 15 15 loadbang;
#X obj 202 122 makefilename %s0/%%s;
#X obj 202 189 makefilename;
#X obj 202 144 list prepend set;
#X obj 202 166 list trim;
#X obj 15 37 t b b;
#X obj 15 116 list append \$1;
#X obj 15 138 route bang;
#X obj 202 211 outlet;
#X obj 55 71 inlet;
#X obj 55 93 route bang;
#X connect 0 0 2 0;
#X connect 1 0 6 0;
#X connect 2 0 4 0;
#X connect 3 0 9 0;
#X connect 4 0 5 0;
#X connect 5 0 3 0;
#X connect 6 0 7 0;
#X connect 6 1 0 0;
#X connect 7 0 8 0;
#X connect 8 1 3 0;
#X connect 10 0 11 0;
#X connect 11 0 7 0;
#X connect 11 1 3 0;
